<?xml version="1.0" encoding="utf-8"?>
<!-- Generator: Adobe Illustrator 25.4.1, SVG Export Plug-In . SVG Version: 6.00 Build 0)  -->
<svg version="1.1" id="Capa_1" xmlns="http://www.w3.org/2000/svg" xmlns:xlink="http://www.w3.org/1999/xlink" x="0px" y="0px"
	 viewBox="0 0 360 360" style="enable-background:new 0 0 360 360;" xml:space="preserve">
<style type="text/css">
	.st0{fill:#828383;}
</style>
<g>
	<g>
		<path class="st0" d="M301.98,251.68c-0.1,2.08,0.22,4.41-0.18,6.72c-0.86,4.94-3.81,8.55-7.56,11.6
			c-5.18,4.21-11.14,7.04-17.34,9.36c-11,4.13-22.39,6.72-33.94,8.73c-1.69,0.3-2.08-0.18-2.19-1.81
			c-0.39-5.86-2.97-10.51-8.11-13.55c-1.17-0.69-1.57-1.34-1.23-2.77c1.49-6.29-0.08-11.76-4.71-16.32
			c-2.67-2.63-5.29-5.32-7.98-7.94c-4.38-4.29-9.65-5.61-15.54-4.25c-1.66,0.38-2.37-0.05-3.21-1.41c-3.21-5.16-7.96-7.88-14.05-7.9
			c-4.91-0.02-9.84-0.47-14.72,0.27c-5.03,0.77-8.83,3.54-11.39,7.91c-0.72,1.23-1.41,1.49-2.79,1.17
			c-6.2-1.43-11.64,0.05-16.18,4.61c-2.51,2.52-5.01,5.05-7.55,7.54c-4.71,4.61-6.27,10.12-4.73,16.49c0.29,1.21,0.1,1.86-1.01,2.51
			c-5.32,3.13-8.05,7.87-8.38,14c-0.06,1.04-0.19,1.77-1.55,1.53c-15.19-2.7-30.2-5.99-44.07-13.09c-3.87-1.98-7.47-4.4-10.5-7.57
			c-3.36-3.51-5.16-7.6-5.09-12.58c0.18-11.91,0.57-23.78,3.14-35.47c0.88-3.99,2.14-7.86,3.97-11.53
			c3.99-7.99,10.72-12.34,19.15-14.48c8.02-2.04,16.24-3.13,24.23-5.33c10.91-3.01,20.93-7.81,30.03-14.54
			c1.97-1.46,1.96-1.45,2.87,0.71c0.81,1.91,2.21,3.32,3.89,4.48c5.13,3.52,10.95,5.24,16.97,6.29c13.79,2.41,27.54,2.29,41.14-1.31
			c4.08-1.08,7.99-2.6,11.47-5.08c1.66-1.18,3.05-2.6,3.82-4.53c0.8-2.03,0.81-2.03,2.63-0.68c8.72,6.45,18.25,11.24,28.69,14.23
			c6.16,1.77,12.46,2.91,18.72,4.2c2.22,0.45,4.41,1,6.62,1.49c11.93,2.65,19.09,10.19,22.4,21.75c1.81,6.31,2.82,12.75,3.39,19.25
			C301.64,240.05,301.94,245.74,301.98,251.68z"/>
		<path class="st0" d="M180.38,18c12.93,0.1,24.96,3.02,35.44,11.04c1.93,1.48,4.33,2.3,6.32,3.77
			c6.53,4.82,10.29,11.49,12.67,19.05c2.11,6.7,3.1,13.59,3.56,20.58c0.21,3.22,0.62,6.43,0.92,9.65c0.1,1.08,0.55,1.87,1.31,2.68
			c2.46,2.62,2.91,6.04,3.05,9.4c0.29,7.29-1.05,14.29-4.45,20.81c-1.12,2.15-2.5,4.09-4.65,5.34c-0.82,0.48-1.02,1.28-1.33,2.06
			c-5.03,12.71-11.89,24.27-21.65,33.94c-6.24,6.17-13.34,11.05-21.92,13.45c-11.11,3.11-21.26,0.63-30.7-5.44
			c-11-7.07-18.81-17.03-25.19-28.24c-2.5-4.39-4.63-8.96-6.42-13.68c-0.36-0.95-0.84-1.66-1.81-2.13c-1.67-0.82-2.9-2.19-3.8-3.78
			c-4.69-8.28-6.45-17.11-4.75-26.52c0.43-2.39,1.29-4.6,3.45-6.07c1.08-0.73,0.84-1.96,0.85-3.04c0.08-7.78,0.69-15.51,2.37-23.11
			c1.89-8.51,4.9-16.5,11.49-22.65c0.28-0.26,0.54-0.58,0.86-0.79c9.36-6.22,18.52-12.83,29.94-14.94
			C170.7,18.5,175.51,17.94,180.38,18z"/>
		<path class="st0" d="M229.04,292.76c0,1.94,0.03,3.88-0.01,5.82c-0.06,2.7-1.42,4.39-4.04,4.93c-1.77,0.37-3.56,0.65-5.35,0.9
			c-1.34,0.19-2.31,0.72-2.62,2.14c-0.08,0.38-0.19,0.78-0.41,1.08c-1.98,2.71-1.1,4.98,0.99,7.13c0.58,0.6,1.02,1.34,1.49,2.03
			c1.75,2.58,1.58,4.77-0.58,6.98c-2.45,2.49-4.91,4.97-7.41,7.41c-2.45,2.4-4.65,2.55-7.46,0.58c-0.26-0.19-0.52-0.38-0.79-0.57
			c-4.64-3.37-4.63-3.36-9.91-1.03c-0.74,0.32-1.11,0.74-1.24,1.54c-0.32,2.04-0.69,4.08-1.09,6.11c-0.49,2.52-2.13,4.05-4.66,4.11
			c-3.94,0.09-7.89,0.08-11.84,0.01c-2.52-0.05-4.21-1.54-4.74-4.05c-0.43-2.02-0.75-4.07-1.08-6.11c-0.11-0.67-0.28-1.22-1-1.5
			c-1.63-0.63-3.24-1.29-4.84-1.99c-0.73-0.32-1.24,0.01-1.78,0.4c-1.52,1.09-3.04,2.2-4.58,3.27c-2.47,1.72-4.72,1.62-6.85-0.44
			c-2.7-2.6-5.35-5.26-7.96-7.95c-1.87-1.93-2.03-4.12-0.6-6.36c0.31-0.49,0.59-1.03,1.01-1.42c3.12-2.94,3.37-6.13,1.12-9.72
			c-0.49-0.78-0.84-1.34-1.78-1.49c-1.98-0.3-3.95-0.65-5.92-1.02c-2.6-0.49-4.09-2.19-4.12-4.84c-0.05-3.88-0.05-7.76,0-11.64
			c0.03-2.48,1.35-4.17,3.78-4.73c2.08-0.47,4.19-0.77,6.3-1.11c0.68-0.11,1.23-0.29,1.52-0.99c0.66-1.62,1.31-3.24,2.04-4.82
			c0.39-0.83-0.08-1.36-0.48-1.93c-1.12-1.59-2.29-3.13-3.38-4.74c-1.58-2.33-1.42-4.49,0.53-6.5c2.62-2.69,5.27-5.35,7.96-7.96
			c2.06-2,4.28-2.17,6.69-0.55c1.61,1.08,3.18,2.22,4.73,3.38c0.77,0.58,1.49,0.71,2.31,0.18c0.21-0.14,0.46-0.28,0.7-0.32
			c4.09-0.68,5.26-3.5,5.35-7.17c0.02-0.64,0.2-1.28,0.34-1.91c0.56-2.57,2.15-3.96,4.74-3.99c3.88-0.05,7.76-0.04,11.64,0
			c2.7,0.03,4.32,1.39,4.87,4.07c0.4,1.96,0.75,3.94,1.03,5.92c0.14,0.96,0.68,1.33,1.47,1.81c3.49,2.14,6.67,2.17,9.58-0.99
			c0.39-0.42,0.94-0.69,1.42-1.01c2.43-1.61,4.54-1.44,6.65,0.62c2.64,2.58,5.24,5.19,7.82,7.82c2.04,2.09,2.2,4.21,0.59,6.66
			c-0.28,0.43-0.6,0.85-0.9,1.26c-3.35,4.61-3.33,4.61-1,9.87c0.36,0.82,0.85,1.18,1.71,1.3c2.05,0.3,4.09,0.61,6.11,1.06
			c2.54,0.56,3.83,2.23,3.91,4.82c0,0.13,0,0.26,0,0.39C229.04,289.27,229.04,291.01,229.04,292.76z M199.3,292.92
			c0-10.65-8.58-19.26-19.22-19.28c-10.77-0.02-19.38,8.58-19.36,19.33c0.02,10.54,8.78,19.27,19.32,19.26
			C190.58,312.22,199.3,303.48,199.3,292.92z"/>
	</g>
</g>
</svg>
