<svg xmlns="http://www.w3.org/2000/svg" id="Layer_1" data-name="Layer 1" viewBox="0 0 75 75">
  <path d="m21.9,16.18c0-1.04,0-2.01,0-2.98.02-1.84,1.81-3.04,3.51-2.35.93.38,1.48,1.11,1.54,2.12.05.92.03,1.85.01,2.77,0,.35.09.45.45.45,5.31-.01,10.61,0,15.92,0,1.4,0,2.79,0,4.19,0,.49,0,.49,0,.49-.51,0-.78,0-1.56,0-2.35-.01-1.52,1.07-2.67,2.52-2.67,1.46,0,2.56,1.13,2.56,2.64,0,.93,0,1.87,0,2.85.15.01.29.03.42.03,1,0,2,0,3,0,3.45.02,5.99,2.49,6.02,5.94.03,3.94,0,7.87,0,11.81,0,2.13,0,4.25,0,6.38,0,5.88,0,11.77,0,17.65,0,1.12-.12,2.2-.66,3.2-1.09,1.99-2.77,3.14-5.04,3.17-4.97.06-9.95.02-14.92.02-7.82,0-15.63-.03-23.45.01-3.28.02-6.03-2.6-6.02-5.92.01-5.22,0-10.44,0-15.65,0-2.55.02-5.1.02-7.65,0-4.31-.02-8.61-.02-12.92,0-3.08,1.97-5.44,5.01-5.97.54-.09,1.1-.06,1.65-.06.91,0,1.82,0,2.78,0Zm-6.4,17.63c0,.18,0,.31,0,.45,0,3.42,0,6.84,0,10.26,0,4.59,0,9.18.01,13.77,0,.45.06.93.24,1.34.52,1.21,1.51,1.68,2.8,1.68,5-.01,10,0,14.99,0,6.02,0,12.05,0,18.07,0,1.64,0,3.28,0,4.92,0,1.81,0,2.96-1.15,2.96-2.95,0-8.05,0-16.1,0-24.15,0-.12,0-.25,0-.4H15.5Zm44-3.46c0-.18,0-.3,0-.43,0-2.58,0-5.15,0-7.73,0-1.81-1.16-2.98-2.98-2.99-1,0-2,0-3,0-.13,0-.27.02-.43.03,0,1.63,0,3.21,0,4.8,0,.43-.01.88-.12,1.29-.41,1.53-2.04,2.3-3.47,1.63-1-.47-1.47-1.3-1.47-2.41,0-1.59,0-3.18,0-4.77q0-.57-.55-.57c-6.69,0-13.38,0-20.07,0-.34,0-.43.1-.43.43.01,1.68.01,3.35,0,5.03,0,1.43-1.13,2.54-2.54,2.53-1.59-.01-2.51-1.35-2.52-2.57-.02-1.67,0-3.33,0-5,0-.12,0-.25,0-.4-.15,0-.26-.02-.37-.02-1.05,0-2.1,0-3.15,0-1.68,0-2.87,1.21-2.87,2.9,0,2.6,0,5.2,0,7.81,0,.14,0,.27,0,.44h44Z" fill="#00A8C6"/>
  <g>
    <rect x="21.27" y="51.48" width="4.85" height="4.85" rx=".44" ry=".44" fill="#00A8C6"/>
    <rect x="28.24" y="51.48" width="4.85" height="4.85" rx=".44" ry=".44" fill="#00A8C6"/>
    <rect x="35.21" y="51.48" width="4.85" height="4.85" rx=".44" ry=".44" fill="#00A8C6"/>
    <rect x="21.27" y="44.67" width="4.85" height="4.85" rx=".44" ry=".44" fill="#00A8C6"/>
    <rect x="28.24" y="44.67" width="4.85" height="4.85" rx=".44" ry=".44" fill="#00A8C6"/>
    <rect x="35.21" y="44.67" width="4.85" height="4.85" rx=".44" ry=".44" fill="#00A8C6"/>
    <rect x="28.24" y="37.87" width="4.85" height="4.85" rx=".44" ry=".44" fill="#00A8C6"/>
    <rect x="35.21" y="37.87" width="4.85" height="4.85" rx=".44" ry=".44" fill="#00A8C6"/>
    <rect x="42.18" y="37.87" width="4.85" height="4.85" rx=".44" ry=".44" fill="#00A8C6"/>
    <rect x="42.18" y="44.67" width="4.85" height="4.85" rx=".44" ry=".44" fill="#00A8C6"/>
    <rect x="48.88" y="37.87" width="4.85" height="4.85" rx=".44" ry=".44" fill="#00A8C6"/>
    <rect x="48.88" y="44.67" width="4.85" height="4.85" rx=".44" ry=".44" fill="#00A8C6"/>
    <rect x="42.18" y="51.48" width="4.85" height="4.85" rx=".44" ry=".44" fill="#00A8C6"/>
  </g>
</svg>