<svg xmlns="http://www.w3.org/2000/svg" id="Layer_1" data-name="Layer 1" viewBox="0 0 75 75">
  <g>
    <path d="m11.28,16.4c0-1.04,0-2.01,0-2.98.02-1.84,1.81-3.04,3.51-2.35.93.38,1.48,1.11,1.54,2.12.05.92.03,1.85.01,2.77,0,.35.09.45.45.45,5.31-.01,10.61,0,15.92,0,1.4,0,2.79,0,4.19,0,.49,0,.49,0,.49-.51,0-.78,0-1.56,0-2.35-.01-1.52,1.07-2.67,2.52-2.67,1.46,0,2.56,1.13,2.56,2.64,0,.93,0,1.87,0,2.85.15.01.29.03.42.03,1,0,2,0,3,0,3.45.02,5.99,2.49,6.02,5.94.03,3.94,0,7.87,0,11.81,0,2.13,0,4.25,0,6.38,0,5.88,0,11.77,0,17.65,0,1.12-.12,2.2-.66,3.2-1.09,1.99-2.77,3.14-5.04,3.17-4.97.06-9.95.02-14.92.02-7.82,0-15.63-.03-23.45.01-3.28.02-6.03-2.6-6.02-5.92.01-5.22,0-10.44,0-15.65,0-2.55.02-5.1.02-7.65,0-4.31-.02-8.61-.02-12.92,0-3.08,1.97-5.44,5.01-5.97.54-.09,1.1-.06,1.65-.06.91,0,1.82,0,2.78,0Zm-6.4,17.63c0,.18,0,.31,0,.45,0,3.42,0,6.84,0,10.26,0,4.59,0,9.18.01,13.77,0,.45.06.93.24,1.34.52,1.21,1.51,1.68,2.8,1.68,5-.01,10,0,14.99,0,6.02,0,12.05,0,18.07,0,1.64,0,3.28,0,4.92,0,1.81,0,2.96-1.15,2.96-2.95,0-8.05,0-16.1,0-24.15,0-.12,0-.25,0-.4H4.88Zm44-3.46c0-.18,0-.3,0-.43,0-2.58,0-5.15,0-7.73,0-1.81-1.16-2.98-2.98-2.99-1,0-2,0-3,0-.13,0-.27.02-.43.03,0,1.63,0,3.21,0,4.8,0,.43-.01.88-.12,1.29-.41,1.53-2.04,2.3-3.47,1.63-1-.47-1.47-1.3-1.47-2.41,0-1.59,0-3.18,0-4.77q0-.57-.55-.57c-6.69,0-13.38,0-20.07,0-.34,0-.43.1-.43.43.01,1.68.01,3.35,0,5.03,0,1.43-1.13,2.54-2.54,2.53-1.59-.01-2.51-1.35-2.52-2.57-.02-1.67,0-3.33,0-5,0-.12,0-.25,0-.4-.15,0-.26-.02-.37-.02-1.05,0-2.1,0-3.15,0-1.68,0-2.87,1.21-2.87,2.9,0,2.6,0,5.2,0,7.81,0,.14,0,.27,0,.44h44Z" fill="#00A8C6"/>
    <g>
      <rect x="10.65" y="51.71" width="4.85" height="4.85" rx=".44" ry=".44" fill="#00A8C6"/>
      <rect x="17.62" y="51.71" width="4.85" height="4.85" rx=".44" ry=".44" fill="#00A8C6"/>
      <rect x="24.59" y="51.71" width="4.85" height="4.85" rx=".44" ry=".44" fill="#00A8C6"/>
      <rect x="10.65" y="44.9" width="4.85" height="4.85" rx=".44" ry=".44" fill="#00A8C6"/>
      <rect x="17.62" y="44.9" width="4.85" height="4.85" rx=".44" ry=".44" fill="#00A8C6"/>
      <rect x="24.59" y="44.9" width="4.85" height="4.85" rx=".44" ry=".44" fill="#00A8C6"/>
      <rect x="17.62" y="38.1" width="4.85" height="4.85" rx=".44" ry=".44" fill="#00A8C6"/>
      <rect x="24.59" y="38.1" width="4.85" height="4.85" rx=".44" ry=".44" fill="#00A8C6"/>
      <rect x="31.56" y="38.1" width="4.85" height="4.85" rx=".44" ry=".44" fill="#00A8C6"/>
      <rect x="31.56" y="44.9" width="4.85" height="4.85" rx=".44" ry=".44" fill="#00A8C6"/>
      <rect x="38.26" y="38.1" width="4.85" height="4.85" rx=".44" ry=".44" fill="#00A8C6"/>
      <rect x="38.26" y="44.9" width="4.85" height="4.85" rx=".44" ry=".44" fill="#00A8C6"/>
      <rect x="31.56" y="51.71" width="4.85" height="4.85" rx=".44" ry=".44" fill="#00A8C6"/>
    </g>
  </g>
  <g>
    <path d="m66.87,24.85c.39.44.77.87,1.17,1.32-.22.18-.42.35-.64.51-1.81,1.3-3.83,1.89-6.04,1.72-4.05-.31-7.43-3.33-8.12-7.32-.6-3.47.49-6.38,3.19-8.64,1.76-1.48,3.84-2.11,6.13-2,4.1.19,7.6,3.26,8.36,7.3.08.42.08.41.5.49.57.1,1.14.2,1.76.31-1.3,1.56-2.57,3.09-3.88,4.65-.7-1.91-1.39-3.78-2.09-5.68.64.11,1.26.22,1.89.32-.31-1.86-2-4.52-5.13-5.38-3.26-.89-6.69.61-8.3,3.61-1.58,2.95-.88,6.63,1.67,8.85,2.61,2.27,6.68,2.44,9.53-.05Z" fill="#00A8C6"/>
    <path d="m59.98,23.46c0-.67,0-1.33,0-2,0-.3.13-.54.35-.74.22-.2.45-.39.68-.59.37-.32.41-.83.1-1.21-.35-.42-.69-.84-1.04-1.26-.2-.23-.3-.5-.29-.8,0-.43,0-.86,0-1.29-.07,0-.12-.01-.17-.03-.29-.06-.49-.31-.47-.59.03-.29.25-.5.56-.5.51,0,1.02,0,1.53,0,1.28,0,2.56,0,3.84.01.12,0,.25.01.37.06.2.08.31.24.32.46.01.23-.08.41-.28.52-.1.05-.12.11-.12.21,0,.39,0,.79,0,1.18,0,.29-.09.54-.27.76-.36.43-.7.88-1.08,1.29-.25.27-.26.97.09,1.2.23.15.43.37.64.55.27.23.41.52.41.88,0,.51,0,1.02,0,1.52,0,.13-.02.26-.04.41.08,0,.16,0,.24,0,.36,0,.62.24.61.56,0,.32-.26.55-.61.55-1.36,0-2.72,0-4.07-.01-.47,0-.93,0-1.4-.01-.26,0-.47-.18-.52-.42-.05-.25.05-.5.27-.61.12-.06.26-.07.36-.09Zm4.09.03c.07,0,.13,0,.18,0,.29,0,.35-.05.39-.33,0-.04.01-.07.01-.11,0-.5,0-.99,0-1.49,0-.21-.08-.38-.25-.51-.22-.18-.44-.37-.65-.56-.54-.48-.6-1.3-.14-1.85.35-.42.7-.85,1.06-1.27.13-.15.19-.31.18-.51,0-.37,0-.74,0-1.11,0-.06,0-.11,0-.18h-4.57c0,.42,0,.83,0,1.24,0,.22.06.4.21.57.35.41.67.84,1.04,1.24.4.43.42,1.47-.14,1.87-.23.17-.43.37-.65.56-.17.14-.24.32-.24.54,0,.48,0,.97,0,1.45,0,.12.04.23.08.34.01.04.07.09.11.1.18.01.36,0,.55,0-.18-.39-.12-.58.22-.8.6-.4,1.84-.39,2.43.01.33.22.38.42.2.8Z" fill="#00A8C6"/>
    <path d="m62.54,19.05c.09.02.15.02.2.03.21.05.35.23.35.44,0,.22-.15.38-.36.43-.18.04-.39-.07-.47-.25-.09-.19-.04-.42.14-.54.14-.09.12-.13,0-.22-.61-.49-1.14-1.07-1.61-1.7-.17-.23-.17-.48-.05-.73.11-.24.33-.3.58-.3.81,0,1.63,0,2.44,0,.26,0,.49.06.59.31.1.24.11.49-.06.71-.47.64-1.01,1.21-1.62,1.71-.03.03-.06.05-.13.1Z" fill="#00A8C6"/>
    <path d="m63.08,21.94c-.24,0-.44-.21-.43-.45,0-.24.21-.44.45-.43.23,0,.43.22.43.45,0,.25-.2.44-.45.44Z" fill="#00A8C6"/>
    <path d="m62.64,20.84c0,.25-.2.44-.45.44-.24,0-.43-.19-.44-.43,0-.24.2-.45.44-.45.25,0,.44.19.45.44Z" fill="#00A8C6"/>
  </g>
</svg>