<svg xmlns="http://www.w3.org/2000/svg" xmlns:xlink="http://www.w3.org/1999/xlink" version="1.1" id="Capa_1" x="0px" y="0px" viewBox="0 0 360 360" style="enable-background:new 0 0 360 360;" xml:space="preserve">
<style type="text/css">
	.st0{fill:#00A0B0;}
</style>
<g>
	<g>
		<path class="st0" d="M297.53,261.66c0,25.9-0.02,51.79,0.04,77.69c0,1.93-0.13,2.65-2.48,2.65c-76.73-0.09-153.46-0.09-230.19,0    c-2.34,0-2.48-0.72-2.48-2.65c0.06-25.9,0.04-51.79,0.04-77.69c0.18-1.05,0.43-2.1,0.53-3.16c4.05-42.41,35.15-77.35,76.72-86.27    c3.04-0.65,5.1-0.1,7.17,2.34c9.73,11.46,19.64,22.77,29.47,34.14c3.46,4.01,3.81,4.01,7.27,0.01    c9.84-11.37,19.69-22.73,29.51-34.11c1.54-1.78,2.96-3.21,5.73-2.61c32.85,7.14,56.17,26.16,70.31,56.5    C294.06,238.97,296.3,250.22,297.53,261.66z M258.76,287.05c0.01,0,0.01,0,0.02,0c0-2.03,0.05-4.06-0.01-6.09    c-0.12-4.09-1.31-5.33-5.38-5.46c-2.86-0.09-5.73-0.14-8.59-0.02c-2.86,0.12-4.2-0.99-4.07-3.96c0.12-2.98,0.02-5.97-0.01-8.95    c-0.04-3.28-1.51-5.17-5-5.15c-4.18,0.03-8.36,0.01-12.54,0.01c-3.24,0-4.86,1.7-4.95,4.84c-0.09,3.1-0.14,6.21-0.04,9.31    c0.08,2.7-0.98,3.98-3.78,3.88c-2.98-0.1-5.97-0.07-8.95,0.03c-3.8,0.14-5.12,1.45-5.22,5.29c-0.1,3.94-0.1,7.88,0,11.82    c0.1,4,1.43,5.27,5.5,5.39c2.98,0.09,5.97,0.09,8.95,0.04c2.39-0.04,3.52,0.99,3.48,3.43c-0.05,2.98-0.04,5.97,0.04,8.95    c0.11,4.05,1.42,5.45,5.37,5.55c4.06,0.1,8.12,0,12.18,0.03c3.26,0.03,4.86-1.65,4.94-4.81c0.08-3.22,0.11-6.45,0.06-9.67    c-0.03-2.39,1-3.51,3.43-3.47c3.22,0.05,6.45,0.01,9.67-0.05c3.14-0.06,4.91-1.58,4.92-4.85    C258.76,291.1,258.76,289.07,258.76,287.05z" fill="#6A4A3C"/>
		<path class="st0" d="M185.02,18c5.6,1.12,11.26,1.94,16.66,4.01c24.24,9.31,40.05,31.81,40.13,57.74    c0.03,10.61,1.03,21.29-0.65,31.82c-4.78,30.03-30.09,51.91-60.43,52.59c-32.99,0.73-62.04-27.05-62.49-60.05    c-0.15-11.08-1.11-22.25,0.59-33.25c4.33-27.91,25.77-48.56,53.73-52.31c0.82-0.11,1.62-0.36,2.43-0.54    C178.33,18,181.67,18,185.02,18z" fill="#6A4A3C"/>
	</g>
</g>
</svg>