<?xml version="1.0" encoding="utf-8"?>
<!-- Generator: Adobe Illustrator 25.4.1, SVG Export Plug-In . SVG Version: 6.00 Build 0)  -->
<svg version="1.1" id="Capa_1" xmlns="http://www.w3.org/2000/svg" xmlns:xlink="http://www.w3.org/1999/xlink" x="0px" y="0px"
	 viewBox="0 0 360 360" style="enable-background:new 0 0 360 360;" xml:space="preserve">
<style type="text/css">
	.st0{fill:#828383;}
</style>
<g>
	<g>
		<path class="st0" d="M297.53,261.66c0,25.9-0.02,51.79,0.04,77.69c0,1.93-0.13,2.65-2.48,2.65c-76.73-0.09-153.46-0.09-230.19,0
			c-2.34,0-2.48-0.72-2.48-2.65c0.06-25.9,0.04-51.79,0.04-77.69c0.18-1.05,0.43-2.1,0.53-3.16c4.05-42.41,35.15-77.35,76.72-86.27
			c3.04-0.65,5.1-0.1,7.17,2.34c9.73,11.46,19.64,22.77,29.47,34.14c3.46,4.01,3.81,4.01,7.27,0.01
			c9.84-11.37,19.69-22.73,29.51-34.11c1.54-1.78,2.96-3.21,5.73-2.61c32.85,7.14,56.17,26.16,70.31,56.5
			C294.06,238.97,296.3,250.22,297.53,261.66z M258.76,287.05c0.01,0,0.01,0,0.02,0c0-2.03,0.05-4.06-0.01-6.09
			c-0.12-4.09-1.31-5.33-5.38-5.46c-2.86-0.09-5.73-0.14-8.59-0.02c-2.86,0.12-4.2-0.99-4.07-3.96c0.12-2.98,0.02-5.97-0.01-8.95
			c-0.04-3.28-1.51-5.17-5-5.15c-4.18,0.03-8.36,0.01-12.54,0.01c-3.24,0-4.86,1.7-4.95,4.84c-0.09,3.1-0.14,6.21-0.04,9.31
			c0.08,2.7-0.98,3.98-3.78,3.88c-2.98-0.1-5.97-0.07-8.95,0.03c-3.8,0.14-5.12,1.45-5.22,5.29c-0.1,3.94-0.1,7.88,0,11.82
			c0.1,4,1.43,5.27,5.5,5.39c2.98,0.09,5.97,0.09,8.95,0.04c2.39-0.04,3.52,0.99,3.48,3.43c-0.05,2.98-0.04,5.97,0.04,8.95
			c0.11,4.05,1.42,5.45,5.37,5.55c4.06,0.1,8.12,0,12.18,0.03c3.26,0.03,4.86-1.65,4.94-4.81c0.08-3.22,0.11-6.45,0.06-9.67
			c-0.03-2.39,1-3.51,3.43-3.47c3.22,0.05,6.45,0.01,9.67-0.05c3.14-0.06,4.91-1.58,4.92-4.85
			C258.76,291.1,258.76,289.07,258.76,287.05z"/>
		<path class="st0" d="M185.02,18c5.6,1.12,11.26,1.94,16.66,4.01c24.24,9.31,40.05,31.81,40.13,57.74
			c0.03,10.61,1.03,21.29-0.65,31.82c-4.78,30.03-30.09,51.91-60.43,52.59c-32.99,0.73-62.04-27.05-62.49-60.05
			c-0.15-11.08-1.11-22.25,0.59-33.25c4.33-27.91,25.77-48.56,53.73-52.31c0.82-0.11,1.62-0.36,2.43-0.54
			C178.33,18,181.67,18,185.02,18z"/>
	</g>
</g>
<g>
	<g>
		<path class="st0" d="M247.18,68.2c0.66-17.21,8.19-30.36,23.31-38.93c5.8-3.28,12.11-4.97,18.78-5.23
			c13.48-0.53,24.91,4.13,34.24,13.81c6.11,6.35,9.89,13.95,11.38,22.65c0.17,1.02,0.59,1.39,1.58,1.54c2.81,0.42,5.6,0.94,8.4,1.43
			c0.97,0.17,1.02,0.31,0.38,1.08c-5.08,6.1-10.16,12.19-15.24,18.28c-0.86,1.03-1.72,2.08-2.59,3.1c-0.61,0.72-0.72,0.7-1.05-0.2
			c-1.55-4.2-3.09-8.41-4.64-12.61c-1.63-4.43-3.25-8.85-4.87-13.28c-0.12-0.34-0.46-0.72-0.15-1.05c0.26-0.27,0.67-0.07,1.01-0.01
			c2.37,0.4,4.73,0.81,7.1,1.22c0.95,0.16,1,0.13,0.72-0.81c-4.14-13.94-13.27-22.79-27.51-25.62
			c-12.72-2.53-23.81,1.32-32.66,10.82c-6.76,7.25-9.72,16.03-9.2,25.93c0.8,15.03,11.77,28.4,26.32,31.99
			c11.35,2.8,21.7,0.56,30.97-6.58c1.51-1.17,1.49-1.17,2.76,0.29c1.33,1.52,2.66,3.05,4.02,4.53c0.44,0.48,0.44,0.76-0.07,1.19
			c-6.35,5.36-13.61,8.77-21.82,10.07c-9.24,1.47-18.15,0.22-26.48-4.02c-13.16-6.71-21.14-17.44-24-31.94
			C247.39,73.35,247.15,70.81,247.18,68.2z"/>
		<path class="st0" d="M294.2,93.55c-4.42,0-8.84,0-13.27,0c-1.21,0-2.17-0.47-2.74-1.57c-0.52-1.01-0.39-1.99,0.25-2.9
			c0.54-0.77,1.32-1.13,2.25-1.19c0.33-0.02,0.57-0.07,0.5-0.5c-0.37-2.36-0.1-4.73-0.16-7.1c-0.02-0.59-0.02-1.17,0-1.76
			c0.05-1.62,0.59-3.04,1.83-4.13c1.14-1.01,2.29-2,3.44-3.01c1.55-1.37,1.76-3.85,0.43-5.45c-1.73-2.1-3.46-4.21-5.22-6.28
			c-1.06-1.25-1.53-2.66-1.52-4.28c0.02-1.7,0-3.4,0.02-5.1c0.01-0.6-0.1-0.94-0.82-1.05c-1.41-0.22-2.26-1.39-2.23-2.83
			c0.04-1.4,1-2.45,2.43-2.67c1.08-0.17,2.16-0.11,3.25-0.08c7.88,0.19,15.75,0.04,23.63,0.11c0.35,0,0.71,0,1.05,0.08
			c1.2,0.28,1.96,1.06,2.17,2.27c0.19,1.13-0.18,2.13-1.17,2.74c-0.64,0.39-0.86,0.84-0.82,1.56c0.07,1.23,0,2.46,0.1,3.68
			c0.22,2.62-0.63,4.78-2.43,6.7c-1.52,1.62-2.88,3.39-4.28,5.12c-1.39,1.72-1.19,4.12,0.44,5.59c1.07,0.96,2.16,1.89,3.25,2.82
			c1.23,1.05,1.94,2.39,1.94,3.98c0.01,3.04,0.24,6.09-0.14,9.12c-0.05,0.44,0.08,0.6,0.5,0.58c0.23-0.01,0.47-0.02,0.7-0.01
			c1.72,0.05,2.88,1.16,2.89,2.77c0.01,1.67-1.15,2.81-2.91,2.82c-4.45,0.02-8.9,0.01-13.35,0.01
			C294.2,93.57,294.2,93.56,294.2,93.55z M288.09,49.29c-1.41,0-2.81,0-4.22,0c-1.18,0-1.18,0-1.19,1.14c0,1.7,0.02,3.4-0.02,5.1
			c-0.02,0.97,0.32,1.75,0.93,2.48c1.73,2.06,3.39,4.19,5.18,6.2c1.99,2.25,2.13,7.2-0.92,9.37c-1.07,0.76-2,1.71-3,2.57
			c-0.78,0.67-1.18,1.49-1.15,2.54c0.03,1.41,0,2.81,0,4.22c0,1.2-0.02,2.4,0.04,3.6c0.03,0.61,0.17,1.28,0.98,1.34
			c0.55,0.05,1.11,0.02,1.67,0.02c0.31,0,0.47-0.07,0.39-0.47c-0.37-1.85,0.26-3.06,1.92-3.78c2.55-1.11,5.2-1.32,7.91-0.89
			c1.34,0.21,2.62,0.62,3.76,1.39c1.32,0.9,1.64,1.67,1.28,3.2c-0.09,0.39,0,0.52,0.38,0.58c1.14,0.16,1.77-0.25,1.79-1.44
			c0.05-2.75,0.04-5.51-0.01-8.26c-0.01-0.75-0.4-1.39-0.99-1.89c-1.16-0.98-2.26-2.04-3.46-2.98c-2.57-2-2.57-6.84-0.72-8.95
			c1.86-2.11,3.61-4.31,5.41-6.47c0.55-0.66,0.84-1.39,0.84-2.25c-0.01-1.76-0.04-3.52,0.01-5.27c0.02-0.78-0.27-1.01-1.02-1
			C298.63,49.42,293.36,49.4,288.09,49.29z"/>
		<path class="st0" d="M294.12,66.21c0.48,0.16,0.79,0.24,1.07,0.37c0.9,0.4,1.46,1.43,1.32,2.36c-0.15,0.99-0.92,1.78-1.9,1.93
			c-1,0.16-1.97-0.34-2.4-1.24c-0.44-0.91-0.28-2.02,0.52-2.63c0.68-0.52,0.58-0.79-0.03-1.3c-2.88-2.41-5.45-5.12-7.64-8.19
			c-0.74-1.03-0.77-2.12-0.44-3.26c0.34-1.15,1.35-1.9,2.56-1.9c4.36-0.01,8.72-0.02,13.08,0.02c2.26,0.02,3.48,2.44,2.48,4.6
			c-0.67,1.44-1.81,2.58-2.87,3.75C298.14,62.65,296.37,64.55,294.12,66.21z"/>
		<path class="st0" d="M294.35,75.12c0.01,1.22-0.98,2.24-2.21,2.26c-1.25,0.02-2.3-0.99-2.33-2.24c-0.03-1.26,0.98-2.29,2.25-2.31
			C293.3,72.81,294.34,73.85,294.35,75.12z"/>
		<path class="st0" d="M296.37,80.59c-1.28-0.01-2.27-1.02-2.25-2.29c0.02-1.22,1.02-2.21,2.24-2.22c1.25-0.01,2.29,1.01,2.3,2.26
			C298.68,79.59,297.65,80.6,296.37,80.59z"/>
	</g>
</g>
</svg>
