<?xml version="1.0" encoding="utf-8"?>
<!-- Generator: Adobe Illustrator 25.4.1, SVG Export Plug-In . SVG Version: 6.00 Build 0)  -->
<svg version="1.1" id="Capa_1" xmlns="http://www.w3.org/2000/svg" xmlns:xlink="http://www.w3.org/1999/xlink" x="0px" y="0px"
	 viewBox="0 0 360 360" style="enable-background:new 0 0 360 360;" xml:space="preserve">
<style type="text/css">
	.st0{fill:#828383;}
</style>
<g>
	<g>
		<path class="st0" d="M121.7,213.14c12.51-0.01,25.08,3.11,36.97,8.69c16.81,7.88,34.43,13.03,52.61,16.44
			c7.28,1.36,14.57,2.69,21.85,4.08c3.47,0.67,6.77,1.85,9.5,4.18c4.65,3.96,4.7,10.02,0.01,13.97c-5.8,4.88-12.53,6.66-20.03,5.41
			c-13.9-2.32-27.77-4.8-41.69-6.93c-8.98-1.37-17.92-0.8-26.57,2.29c-0.89,0.32-1.78,0.63-2.54,1.2c-1.04,0.77-1.39,2.25-0.77,3.37
			c0.62,1.13,1.56,1.48,2.78,0.98c9.69-4,19.69-4.2,29.86-2.46c13.17,2.25,26.3,4.7,39.52,6.63c8.94,1.31,17.02-1.27,23.58-7.65
			c5.73-5.57,5.92-13.01,0.68-19.09c-0.93-1.08-0.8-1.47,0.4-2.12c6.92-3.76,12.97-8.74,18.9-13.87
			c8.04-6.97,15.83-14.27,24.93-19.91c3.27-2.03,6.74-3.36,10.7-2.34c0.81,0.21,1.66,0.42,2.29,0.97c1.39,1.2,2.83,1.51,4.72,1.25
			c6.95-0.95,11.41,5.6,9.1,12.38c-0.69,2.01-1.87,3.72-3.09,5.42c-8.54,11.86-17.02,23.77-25.66,35.56
			c-3.47,4.73-7.97,8.42-13.19,11.12c-17.01,8.82-33.83,17.98-50.77,26.92c-4.33,2.29-8.5,4.93-13.11,6.67
			c-6.58,2.48-13.4,2.99-20.35,2.46c-10.3-0.79-20.01-4.11-29.85-6.87c-11.31-3.17-22.57-6.51-33.91-9.55
			c-12.07-3.24-23.87-2.4-35.27,2.98c-3.87,1.83-7.85,3.43-11.72,5.24c-1.37,0.64-2,0.39-2.6-0.99c-6.28-14.35-12.61-28.67-18.92-43
			c-1.7-3.87-3.38-7.75-5.11-11.61c-0.39-0.88-0.39-1.42,0.59-1.84c6.94-2.99,12.87-7.48,18.55-12.38
			c11.52-9.94,24.78-15.87,40-17.3C116.38,213.22,118.67,213.22,121.7,213.14z"/>
		<path class="st0" d="M221.36,191.62c-11.49,0-22.98,0.1-34.46-0.04c-6.14-0.08-12.27-0.13-18.41-0.11
			c-6.24,0.02-12.48-0.21-18.72,0.14c-1.05,0.06-1.67-0.21-1.67-1.45c-0.01-13.83,2.76-26.87,10.93-38.35
			c7.2-10.11,17.06-16.55,28.61-20.65c1.03-0.37,1.68,0.06,2.38,0.66c6.14,5.26,13.17,8.62,21.2,9.72
			c10.78,1.48,20.61-1.06,29.49-7.32c1.19-0.84,2.33-1.76,3.43-2.72c0.65-0.57,1.25-0.61,2.01-0.34c7.6,2.71,14.57,6.5,20.67,11.83
			c1.09,0.96,1.18,1.51-0.07,2.46c-6.55,5.02-10.56,11.64-11.78,19.81c-1.36,9.16,1.03,17.36,6.85,24.56
			c0.35,0.44,1.08,0.87,0.86,1.38c-0.27,0.63-1.14,0.33-1.7,0.33c-13.21,0.04-26.41,0.03-39.62,0.03
			C221.36,191.58,221.36,191.6,221.36,191.62z"/>
		<path class="st0" d="M250.79,93.51c-0.24,11.19-3.72,20.98-11.63,28.97c-11.43,11.56-29.01,12.64-41.69,2.43
			c-9.02-7.26-13.45-16.95-14.26-28.37c-0.66-9.19,1.37-17.76,6.44-25.49c5.4-8.23,12.78-13.73,22.68-15.24
			c9.81-1.49,18.44,1.38,25.7,8.01C246.73,71.78,250.51,81.97,250.79,93.51z"/>
		<path class="st0" d="M45.58,237.78c0.94-0.08,1.04,0.73,1.3,1.3c3.15,7.11,6.28,14.23,9.42,21.34
			c7.22,16.38,14.42,32.77,21.7,49.12c0.66,1.49,0.4,2.14-0.96,2.92c-8.47,4.85-16.9,9.77-25.31,14.73
			c-1.13,0.67-1.56,0.44-2.06-0.69c-9.09-20.69-18.21-41.37-27.32-62.05c-2.27-5.16-4.52-10.33-6.84-15.47
			c-0.53-1.17-0.42-1.72,0.91-2.13c9.43-2.9,18.84-5.86,28.25-8.8C44.97,237.95,45.27,237.87,45.58,237.78z"/>
		<path class="st0" d="M285.63,148.32c1.72,0,3.45,0.08,5.17-0.02c1.45-0.09,2.01,0.27,1.95,1.88c-0.12,3.6,0.04,7.2-0.01,10.8
			c-0.02,1.3,0.47,1.75,1.74,1.73c3.7-0.06,7.41,0.02,11.12-0.06c1.19-0.03,1.56,0.35,1.54,1.5c-0.05,3.86-0.04,7.72,0,11.59
			c0.01,1.15-0.45,1.58-1.58,1.57c-3.65-0.03-7.31,0.05-10.96-0.03c-1.47-0.03-1.9,0.51-1.87,1.92c0.07,3.65-0.01,7.31,0.05,10.96
			c0.02,1.08-0.32,1.51-1.41,1.5c-3.86-0.03-7.72-0.04-11.59,0c-1.2,0.01-1.67-0.43-1.65-1.66c0.05-3.39,0.02-6.78,0.02-10.18
			c0-2.51,0-2.51-2.59-2.51c-3.34,0-6.68-0.04-10.02,0.02c-1.28,0.02-1.77-0.44-1.76-1.72c0.05-3.76,0.04-7.52,0.01-11.27
			c-0.01-1.2,0.46-1.66,1.67-1.64c3.44,0.06,6.89,0.03,10.33,0.01c2.35-0.01,2.35-0.03,2.35-2.3c0-3.44,0.04-6.89-0.02-10.33
			c-0.02-1.27,0.39-1.8,1.7-1.75C281.77,148.38,283.7,148.32,285.63,148.32z"/>
	</g>
</g>
<g>
	<g>
		<path class="st0" d="M257.69,88.41c0.61-15.87,7.55-28,21.5-35.89c5.35-3.03,11.17-4.59,17.32-4.83
			c12.43-0.48,22.97,3.8,31.57,12.73c5.63,5.85,9.12,12.87,10.49,20.89c0.16,0.94,0.54,1.28,1.45,1.42
			c2.59,0.38,5.16,0.87,7.74,1.32c0.89,0.16,0.94,0.29,0.35,0.99c-4.68,5.62-9.37,11.24-14.05,16.86c-0.8,0.95-1.58,1.92-2.39,2.86
			c-0.57,0.67-0.66,0.65-0.97-0.19c-1.43-3.87-2.85-7.75-4.28-11.63c-1.5-4.08-3-8.16-4.49-12.24c-0.11-0.31-0.42-0.67-0.13-0.97
			c0.24-0.25,0.62-0.06,0.93-0.01c2.18,0.37,4.36,0.75,6.54,1.12c0.87,0.15,0.92,0.12,0.66-0.75
			c-3.82-12.85-12.24-21.01-25.36-23.63c-11.73-2.33-21.95,1.22-30.12,9.98c-6.23,6.68-8.96,14.78-8.48,23.91
			c0.74,13.86,10.85,26.18,24.27,29.49c10.47,2.58,20.01,0.52,28.56-6.07c1.4-1.08,1.38-1.08,2.55,0.27
			c1.22,1.41,2.45,2.81,3.71,4.18c0.41,0.45,0.4,0.7-0.07,1.1c-5.86,4.94-12.55,8.08-20.12,9.28c-8.52,1.35-16.73,0.2-24.41-3.71
			c-12.13-6.18-19.49-16.08-22.13-29.45C257.87,93.16,257.66,90.82,257.69,88.41z"/>
		<path class="st0" d="M301.04,111.79c-4.08,0-8.16,0-12.23,0c-1.12,0-2-0.43-2.52-1.45c-0.48-0.93-0.36-1.84,0.23-2.68
			c0.5-0.71,1.22-1.04,2.07-1.1c0.31-0.02,0.52-0.06,0.46-0.46c-0.34-2.17-0.09-4.36-0.15-6.55c-0.01-0.54-0.01-1.08,0-1.62
			c0.05-1.5,0.55-2.8,1.69-3.81c1.05-0.93,2.12-1.85,3.17-2.77c1.43-1.26,1.62-3.55,0.4-5.03c-1.6-1.94-3.19-3.88-4.82-5.79
			c-0.98-1.15-1.41-2.46-1.4-3.95c0.01-1.57,0-3.13,0.02-4.7c0.01-0.55-0.09-0.87-0.76-0.97c-1.3-0.2-2.09-1.28-2.05-2.61
			c0.03-1.29,0.92-2.26,2.24-2.47c0.99-0.15,2-0.1,2.99-0.08c7.26,0.18,14.53,0.04,21.79,0.1c0.32,0,0.65,0,0.96,0.08
			c1.11,0.26,1.81,0.98,2,2.09c0.18,1.04-0.17,1.96-1.08,2.52c-0.59,0.36-0.79,0.78-0.76,1.44c0.06,1.13,0,2.27,0.09,3.4
			c0.2,2.42-0.58,4.41-2.24,6.18c-1.4,1.49-2.66,3.13-3.95,4.72c-1.28,1.59-1.1,3.8,0.41,5.15c0.99,0.88,1.99,1.74,2.99,2.6
			c1.13,0.97,1.79,2.21,1.79,3.67c0.01,2.8,0.22,5.61-0.13,8.41c-0.05,0.4,0.07,0.56,0.46,0.54c0.22-0.01,0.43-0.02,0.65-0.01
			c1.59,0.05,2.66,1.07,2.66,2.55c0.01,1.54-1.06,2.6-2.69,2.6c-4.1,0.01-8.21,0-12.31,0C301.04,111.81,301.04,111.8,301.04,111.79z
			 M295.4,70.98c-1.3,0-2.59,0-3.89,0c-1.09,0-1.09,0-1.09,1.05c0,1.57,0.02,3.13-0.02,4.7c-0.02,0.89,0.3,1.62,0.86,2.29
			c1.6,1.9,3.13,3.86,4.77,5.72c1.84,2.08,1.96,6.64-0.85,8.64c-0.98,0.7-1.84,1.58-2.77,2.37c-0.72,0.62-1.08,1.38-1.06,2.34
			c0.03,1.3,0,2.59,0,3.89c0,1.11-0.02,2.22,0.04,3.32c0.03,0.56,0.16,1.18,0.9,1.24c0.51,0.04,1.03,0.01,1.54,0.01
			c0.29,0,0.44-0.07,0.36-0.43c-0.34-1.71,0.24-2.82,1.77-3.49c2.35-1.03,4.79-1.22,7.3-0.83c1.24,0.19,2.42,0.57,3.47,1.29
			c1.22,0.83,1.51,1.54,1.18,2.95c-0.08,0.36,0,0.48,0.35,0.53c1.05,0.15,1.63-0.23,1.65-1.33c0.05-2.54,0.03-5.08-0.01-7.61
			c-0.01-0.69-0.37-1.28-0.91-1.74c-1.07-0.91-2.09-1.89-3.19-2.75c-2.37-1.84-2.37-6.31-0.66-8.25c1.71-1.94,3.32-3.98,4.99-5.97
			c0.5-0.6,0.78-1.28,0.77-2.08c-0.01-1.62-0.04-3.24,0.01-4.86c0.02-0.72-0.25-0.93-0.94-0.92
			C305.12,71.1,300.26,71.08,295.4,70.98z"/>
		<path class="st0" d="M300.96,86.58c0.44,0.15,0.73,0.22,0.99,0.34c0.83,0.37,1.35,1.32,1.22,2.18c-0.14,0.91-0.85,1.64-1.75,1.78
			c-0.92,0.15-1.81-0.31-2.21-1.14c-0.4-0.84-0.26-1.86,0.47-2.43c0.63-0.48,0.54-0.73-0.02-1.2c-2.66-2.22-5.03-4.72-7.05-7.55
			c-0.68-0.95-0.71-1.96-0.4-3.01c0.31-1.06,1.24-1.75,2.36-1.76c4.02-0.01,8.04-0.02,12.06,0.02c2.08,0.02,3.21,2.25,2.29,4.24
			c-0.62,1.33-1.67,2.38-2.64,3.46C304.68,83.3,303.04,85.05,300.96,86.58z"/>
		<path class="st0" d="M301.18,94.79c0.01,1.13-0.9,2.06-2.04,2.08c-1.15,0.02-2.12-0.91-2.15-2.07c-0.02-1.16,0.91-2.11,2.08-2.13
			C300.21,92.66,301.17,93.62,301.18,94.79z"/>
		<path class="st0" d="M303.04,99.84c-1.18-0.01-2.09-0.94-2.07-2.11c0.02-1.13,0.94-2.04,2.07-2.05c1.15-0.01,2.11,0.93,2.12,2.09
			C305.17,98.92,304.22,99.85,303.04,99.84z"/>
	</g>
</g>
</svg>
