<?xml version="1.0" encoding="utf-8"?>
<!-- Generator: Adobe Illustrator 25.4.1, SVG Export Plug-In . SVG Version: 6.00 Build 0)  -->
<svg version="1.1" id="Capa_1" xmlns="http://www.w3.org/2000/svg" xmlns:xlink="http://www.w3.org/1999/xlink" x="0px" y="0px"
	 viewBox="0 0 360 360" style="enable-background:new 0 0 360 360;" xml:space="preserve">
<style type="text/css">
	.st0{fill:#828383;}
</style>
<g>
	<g>
		<path class="st0" d="M130.7,203.46c13.56-0.01,27.2,3.38,40.09,9.42c18.24,8.55,37.34,14.13,57.06,17.83
			c7.9,1.48,15.8,2.92,23.7,4.43c3.77,0.72,7.34,2.01,10.31,4.53c5.05,4.3,5.1,10.87,0.01,15.15c-6.29,5.3-13.59,7.22-21.72,5.86
			c-15.07-2.51-30.11-5.21-45.21-7.52c-9.74-1.49-19.43-0.86-28.82,2.49c-0.96,0.34-1.93,0.68-2.76,1.3
			c-1.13,0.84-1.5,2.45-0.83,3.66c0.67,1.22,1.69,1.61,3.01,1.06c10.51-4.34,21.35-4.55,32.38-2.67
			c14.28,2.44,28.53,5.09,42.86,7.19c9.7,1.42,18.46-1.38,25.57-8.29c6.22-6.04,6.42-14.11,0.74-20.71c-1.01-1.17-0.86-1.6,0.44-2.3
			c7.51-4.08,14.07-9.47,20.49-15.04c8.72-7.56,17.17-15.47,27.04-21.59c3.55-2.2,7.31-3.64,11.6-2.54c0.88,0.23,1.8,0.46,2.49,1.05
			c1.5,1.3,3.07,1.64,5.12,1.36c7.54-1.03,12.37,6.07,9.87,13.43c-0.74,2.18-2.03,4.04-3.35,5.88
			c-9.26,12.87-18.46,25.78-27.83,38.56c-3.76,5.13-8.65,9.13-14.3,12.07c-18.44,9.56-36.69,19.5-55.06,29.2
			c-4.7,2.48-9.21,5.34-14.22,7.23c-7.14,2.69-14.54,3.24-22.07,2.67c-11.17-0.85-21.7-4.46-32.37-7.45
			c-12.26-3.44-24.48-7.06-36.77-10.36c-13.09-3.52-25.89-2.6-38.25,3.23c-4.2,1.98-8.51,3.72-12.71,5.69
			c-1.49,0.7-2.16,0.42-2.82-1.07c-6.81-15.56-13.67-31.09-20.52-46.64c-1.85-4.2-3.66-8.41-5.55-12.59c-0.43-0.95-0.43-1.54,0.64-2
			c7.53-3.24,13.96-8.11,20.12-13.42c12.49-10.78,26.88-17.21,43.38-18.76C124.93,203.55,127.42,203.55,130.7,203.46z"/>
		<path class="st0" d="M238.79,180.13c-12.46,0-24.92,0.11-37.38-0.04c-6.65-0.08-13.31-0.14-19.96-0.12
			c-6.77,0.02-13.54-0.23-20.3,0.15c-1.14,0.06-1.81-0.22-1.81-1.57c-0.01-15,2.99-29.14,11.85-41.59
			c7.8-10.96,18.5-17.95,31.03-22.4c1.12-0.4,1.82,0.06,2.58,0.71c6.66,5.7,14.28,9.35,22.99,10.54c11.69,1.6,22.36-1.15,31.98-7.94
			c1.29-0.91,2.53-1.91,3.72-2.95c0.7-0.62,1.36-0.66,2.18-0.37c8.24,2.94,15.8,7.05,22.42,12.83c1.19,1.04,1.27,1.64-0.07,2.67
			c-7.11,5.44-11.45,12.63-12.77,21.48c-1.48,9.94,1.12,18.83,7.43,26.64c0.38,0.47,1.18,0.94,0.93,1.5
			c-0.3,0.68-1.23,0.36-1.85,0.36c-14.32,0.04-28.64,0.03-42.96,0.03C238.79,180.08,238.79,180.11,238.79,180.13z"/>
		<path class="st0" d="M270.7,73.73c-0.27,12.14-4.03,22.75-12.61,31.42c-12.4,12.54-31.46,13.7-45.22,2.64
			c-9.79-7.88-14.59-18.38-15.47-30.77c-0.71-9.97,1.48-19.26,6.98-27.64c5.86-8.93,13.86-14.89,24.6-16.53
			c10.64-1.62,19.99,1.5,27.87,8.68C266.3,50.16,270.4,61.21,270.7,73.73z"/>
		<path class="st0" d="M48.15,230.19c1.02-0.09,1.13,0.79,1.41,1.41c3.42,7.71,6.81,15.43,10.22,23.15
			c7.83,17.76,15.64,35.54,23.54,53.28c0.72,1.62,0.43,2.32-1.05,3.16c-9.18,5.26-18.33,10.6-27.45,15.97
			c-1.23,0.72-1.7,0.48-2.24-0.75c-9.86-22.44-19.75-44.87-29.63-67.3c-2.47-5.59-4.9-11.2-7.42-16.77
			c-0.58-1.27-0.46-1.87,0.99-2.31c10.23-3.14,20.43-6.36,30.64-9.55C47.48,230.38,47.81,230.29,48.15,230.19z"/>
		<path class="st0" d="M308.49,133.17c1.87,0,3.74,0.09,5.6-0.03c1.57-0.1,2.18,0.3,2.12,2.04c-0.13,3.9,0.04,7.81-0.01,11.71
			c-0.02,1.41,0.51,1.9,1.89,1.88c4.02-0.06,8.04,0.02,12.05-0.07c1.29-0.03,1.69,0.38,1.67,1.62c-0.05,4.19-0.05,8.38,0,12.57
			c0.01,1.25-0.48,1.71-1.71,1.7c-3.96-0.04-7.93,0.05-11.89-0.04c-1.59-0.04-2.06,0.56-2.02,2.08c0.08,3.96-0.01,7.92,0.05,11.89
			c0.02,1.17-0.35,1.63-1.53,1.62c-4.19-0.04-8.38-0.04-12.57,0c-1.3,0.01-1.81-0.47-1.79-1.8c0.06-3.68,0.02-7.36,0.02-11.04
			c0-2.72,0-2.73-2.81-2.73c-3.62,0-7.25-0.04-10.87,0.02c-1.39,0.02-1.92-0.47-1.9-1.87c0.05-4.07,0.04-8.15,0.01-12.23
			c-0.01-1.3,0.49-1.8,1.82-1.78c3.73,0.06,7.47,0.03,11.21,0.02c2.55-0.01,2.55-0.03,2.55-2.49c0-3.74,0.04-7.47-0.02-11.21
			c-0.02-1.37,0.42-1.95,1.85-1.9C304.3,133.23,306.4,133.17,308.49,133.17z"/>
	</g>
</g>
</svg>
